<mxfile host="app.diagrams.net" modified="2023-02-14T09:48:28.835Z" agent="5.0 (Windows)" etag="wZa_9MzTEks2a5UVISVA" version="20.3.7" type="github">
  <diagram id="vaUcgaVLUAY44NN7s-ji" name="第 1 页">
    <mxGraphModel dx="1422" dy="752" grid="1" gridSize="10" guides="1" tooltips="1" connect="1" arrows="1" fold="1" page="1" pageScale="1" pageWidth="827" pageHeight="1169" math="0" shadow="0">
      <root>
        <mxCell id="0" />
        <mxCell id="1" parent="0" />
        <mxCell id="jbtwUpFTU93Ipoj2K25E-3" style="edgeStyle=orthogonalEdgeStyle;rounded=0;orthogonalLoop=1;jettySize=auto;html=1;exitX=0.5;exitY=1;exitDx=0;exitDy=0;" edge="1" parent="1" source="jbtwUpFTU93Ipoj2K25E-1" target="jbtwUpFTU93Ipoj2K25E-2">
          <mxGeometry relative="1" as="geometry" />
        </mxCell>
        <mxCell id="jbtwUpFTU93Ipoj2K25E-1" value="&lt;div&gt;创建公平锁&lt;/div&gt;&lt;div&gt;ReentrantLock lock = new ReentrantLock(true)&lt;/div&gt;" style="ellipse;whiteSpace=wrap;html=1;" vertex="1" parent="1">
          <mxGeometry x="329" y="20" width="231" height="60" as="geometry" />
        </mxCell>
        <mxCell id="jbtwUpFTU93Ipoj2K25E-2" value="" style="rounded=1;whiteSpace=wrap;html=1;" vertex="1" parent="1">
          <mxGeometry x="384.5" y="130" width="120" height="60" as="geometry" />
        </mxCell>
        <mxCell id="jbtwUpFTU93Ipoj2K25E-4" value="lock.lock()" style="text;html=1;strokeColor=none;fillColor=none;align=center;verticalAlign=middle;whiteSpace=wrap;rounded=0;" vertex="1" parent="1">
          <mxGeometry x="450" y="90" width="60" height="30" as="geometry" />
        </mxCell>
      </root>
    </mxGraphModel>
  </diagram>
</mxfile>
